<svg width="26" height="26" viewBox="0 0 26 26" fill="none" xmlns="http://www.w3.org/2000/svg">
<g clip-path="url(#clip0_9352_22796)">
<path d="M12.5741 11.6934C12.4232 11.6934 12.2723 11.6481 12.1426 11.5574L7.45582 7.81404C6.7293 7.30561 6.38007 6.62433 6.32498 5.73927C6.26988 4.85425 6.04558 4.80677 6.7034 4.21212C7.36117 3.61757 8.25116 2.58575 9.11337 2.72433C9.21641 2.74089 9.31919 2.76308 9.42136 2.79101C10.3788 3.05263 11.1269 3.77454 11.4225 4.72207L13.2925 10.7167C13.3883 11.024 13.2781 11.3583 13.0182 11.5482C12.8861 11.645 12.7301 11.6934 12.5741 11.6934ZM8.64812 4.19161C8.31098 4.19161 7.98766 4.31572 7.72547 4.55271C7.40951 4.8383 7.24346 5.24588 7.26991 5.67096C7.29637 6.096 7.51168 6.47986 7.8606 6.72402L11.1991 9.06026L10.6792 5.17031C10.5447 4.73918 9.53694 4.41591 9.11607 4.27108C9.08611 4.26077 9.05559 4.25138 9.02456 4.2429C8.89888 4.20852 8.77253 4.19161 8.64812 4.19161Z" fill="#DF646E"/>
<path d="M12.9818 11.5483C12.7219 11.3583 13.3616 11.024 13.4574 10.7168L15.2606 4.72214C15.5562 3.77461 15.5364 3.39193 16.4938 3.1303C16.9025 3.01868 17.4058 2.65941 17.8085 2.72481C18.3493 2.81266 18.8617 3.05469 19.2837 3.43616C19.9416 4.03075 20.2873 4.87941 20.2322 5.76443C20.1771 6.64949 19.7288 7.44864 19.0022 7.95711L13.8573 11.5574C13.7277 11.6481 13.5767 11.6934 13.4259 11.6934C13.2699 11.6933 13.1139 11.6449 12.9818 11.5483ZM16.9754 4.24282C16.5087 4.37038 16.1583 4.70838 16.0143 5.17024L14.8008 9.06018L18.1393 6.72394C18.4883 6.47973 18.7035 6.09593 18.73 5.67089C18.7565 5.2458 18.5905 4.83823 18.2744 4.55263C18.0123 4.31564 17.689 4.19153 17.3518 4.19153C17.2275 4.19158 17.1011 4.20849 16.9754 4.24282Z" fill="#DF646E"/>
<path d="M10.9073 5.17031C10.7633 4.70845 10.413 4.3704 9.94626 4.24289C9.82048 4.20851 9.69413 4.19165 9.56972 4.19165C9.41387 4.19165 9.26132 4.21933 9.11609 4.27128C9.53696 4.4161 9.85125 4.73922 9.98572 5.17036L11.0666 8.62887L12.1208 9.0603L10.9073 5.17031Z" fill="#DC4955"/>
<path d="M7.91935 7.95704C7.19282 7.44862 6.74457 6.64942 6.68942 5.76436C6.63433 4.87934 6.98005 4.03068 7.63787 3.43609C8.05991 3.05462 8.57239 2.81336 9.11316 2.72551C8.251 2.58697 7.37401 2.84159 6.71624 3.43609C6.05837 4.03068 5.7127 4.87934 5.7678 5.76436C5.82289 6.64942 6.27119 7.44857 6.99772 7.95704L12.1426 11.5573C12.2723 11.6481 12.4232 11.6933 12.5741 11.6933C12.7301 11.6933 12.8861 11.6449 13.0182 11.5483C13.0236 11.5444 13.0284 11.54 13.0337 11.536L7.91935 7.95704Z" fill="#DC4955"/>
<path d="M13.6291 10.7167L15.4991 4.72212C15.7947 3.77459 16.5427 3.05268 17.5002 2.79106C17.6024 2.76313 17.7053 2.74216 17.8084 2.7256C17.4057 2.66014 16.9873 2.67944 16.5786 2.79106C15.6212 3.05268 14.8731 3.77459 14.5775 4.72212L12.7075 10.7167C12.6117 11.024 12.7219 11.3583 12.9818 11.5483C13.1139 11.6449 13.2699 11.6933 13.4259 11.6933C13.5768 11.6933 13.7277 11.6481 13.8574 11.5573L13.8879 11.5359C13.6394 11.3441 13.5352 11.0177 13.6291 10.7167Z" fill="#DC4955"/>
<path d="M23.1066 15.9474C23.1066 14.627 23.9911 13.5131 25.2 13.166C25.6748 13.0297 26 12.5926 26 12.0985V10.0955C26 9.2601 25.3228 8.58289 24.4874 8.58289H3.0926C2.2572 8.58289 1.52539 9.2601 1.52539 10.0955V21.7993C1.52539 22.6347 2.2572 23.3119 3.0926 23.3119H24.4874C25.3228 23.3119 26 22.6347 26 21.7993V19.7963C26 19.3022 25.6748 18.8651 25.2 18.7288C23.9911 18.3817 23.1066 17.2678 23.1066 15.9474Z" fill="#7008E7"/>
<path d="M1.8008 21.7993V10.0955C1.8008 9.2601 2.47802 8.58289 3.31343 8.58289H1.51262C0.677219 8.58289 0 9.2601 0 10.0955V21.7993C0 22.6347 0.677219 23.3119 1.51262 23.3119H3.31348C2.47807 23.3119 1.8008 22.6347 1.8008 21.7993Z" fill="#3D0F91"/>
<path d="M18.9025 11.3911C18.6858 11.3911 18.5102 11.2155 18.5102 10.9988V10.3176C18.5102 10.1009 18.6858 9.92529 18.9025 9.92529C19.1192 9.92529 19.2949 10.1009 19.2949 10.3176V10.9988C19.2949 11.2155 19.1192 11.3911 18.9025 11.3911Z" fill="#F8F3FF"/>
<path d="M18.9025 14.0358C18.6858 14.0358 18.5102 13.8601 18.5102 13.6435V12.9623C18.5102 12.7456 18.6858 12.5699 18.9025 12.5699C19.1192 12.5699 19.2949 12.7456 19.2949 12.9623V13.6435C19.2949 13.8601 19.1192 14.0358 18.9025 14.0358Z" fill="#F8F3FF"/>
<path d="M18.9025 16.6805C18.6858 16.6805 18.5102 16.5048 18.5102 16.2881V15.6069C18.5102 15.3903 18.6858 15.2146 18.9025 15.2146C19.1192 15.2146 19.2949 15.3903 19.2949 15.6069V16.2881C19.2949 16.5048 19.1192 16.6805 18.9025 16.6805Z" fill="#F8F3FF"/>
<path d="M18.9025 19.325C18.6858 19.325 18.5102 19.1493 18.5102 18.9326V18.2515C18.5102 18.0348 18.6858 17.8591 18.9025 17.8591C19.1192 17.8591 19.2949 18.0348 19.2949 18.2515V18.9326C19.2949 19.1493 19.1192 19.325 18.9025 19.325Z" fill="#F8F3FF"/>
<path d="M18.9025 21.9696C18.6858 21.9696 18.5102 21.794 18.5102 21.5773V20.8961C18.5102 20.6794 18.6858 20.5038 18.9025 20.5038C19.1192 20.5038 19.2949 20.6794 19.2949 20.8961V21.5773C19.2949 21.7939 19.1192 21.9696 18.9025 21.9696Z" fill="#F8F3FF"/>
<path d="M6.6388 15.0203C5.75231 15.0203 5.03107 14.299 5.03107 13.4125C5.03107 12.5261 5.75231 11.8048 6.6388 11.8048C7.52534 11.8048 8.24654 12.5261 8.24654 13.4125C8.24659 14.299 7.52534 15.0203 6.6388 15.0203ZM6.6388 12.5895C6.18497 12.5895 5.81579 12.9587 5.81579 13.4125C5.81579 13.8663 6.18502 14.2356 6.6388 14.2356C7.09263 14.2356 7.46186 13.8663 7.46186 13.4125C7.46186 12.9587 7.09268 12.5895 6.6388 12.5895Z" fill="#F8F3FF"/>
<path d="M11.7087 20.0901C10.8223 20.0901 10.101 19.3689 10.101 18.4824C10.101 17.5959 10.8223 16.8746 11.7087 16.8746C12.5953 16.8746 13.3165 17.5959 13.3165 18.4824C13.3165 19.3689 12.5953 20.0901 11.7087 20.0901ZM11.7087 17.6593C11.2549 17.6593 10.8857 18.0285 10.8857 18.4823C10.8857 18.9361 11.255 19.3054 11.7087 19.3054C12.1626 19.3054 12.5318 18.9361 12.5318 18.4823C12.5318 18.0285 12.1626 17.6593 11.7087 17.6593Z" fill="#F8F3FF"/>
<path d="M6.48248 20.2258C6.40545 20.2258 6.3276 20.2031 6.2595 20.156C6.08131 20.0326 6.03693 19.7882 6.16027 19.6101L11.5421 11.8381C11.6655 11.66 11.9099 11.6155 12.0881 11.7389C12.2663 11.8623 12.3106 12.1066 12.1873 12.2848L6.8054 20.0567C6.72923 20.1668 6.60689 20.2258 6.48248 20.2258Z" fill="#F8F3FF"/>
</g>
<defs>
<clipPath id="clip0_9352_22796">
<rect width="26" height="26" fill="white"/>
</clipPath>
</defs>
</svg>
