<svg width="26" height="26" viewBox="0 0 26 26" fill="none" xmlns="http://www.w3.org/2000/svg">
<path d="M3.65625 5.28125H20.7188C21.1497 5.28125 21.5631 5.45245 21.8678 5.7572C22.1725 6.06195 22.3438 6.47527 22.3438 6.90625V10.1562H3.65625C3.00978 10.1562 2.3898 9.89944 1.93268 9.44232C1.47556 8.9852 1.21875 8.36522 1.21875 7.71875C1.21875 7.07228 1.47556 6.4523 1.93268 5.99518C2.3898 5.53806 3.00978 5.28125 3.65625 5.28125Z" fill="#290661"/>
<path d="M11.7812 15.8438C15.8198 15.8438 19.0938 12.5698 19.0938 8.53125C19.0938 4.49267 15.8198 1.21875 11.7812 1.21875C7.74267 1.21875 4.46875 4.49267 4.46875 8.53125C4.46875 12.5698 7.74267 15.8438 11.7812 15.8438Z" fill="#FFD54F"/>
<path d="M19.0938 8.53125C19.0936 10.4706 18.3231 12.3305 16.9518 13.7018C15.5805 15.0731 13.7206 15.8436 11.7812 15.8438C11.5098 15.8433 11.2386 15.8283 10.9688 15.7991C12.7564 15.5991 14.4076 14.7473 15.6068 13.4065C16.8059 12.0657 17.4688 10.33 17.4688 8.53125C17.4688 6.73246 16.8059 4.99677 15.6068 3.656C14.4076 2.31522 12.7564 1.46342 10.9688 1.26344C11.2386 1.23415 11.5098 1.21924 11.7812 1.21875C13.7206 1.2189 15.5805 1.98937 16.9518 3.3607C18.3231 4.73203 19.0936 6.5919 19.0938 8.53125Z" fill="#FFCA28"/>
<path d="M11.7812 14.2188C14.9224 14.2188 17.4688 11.6724 17.4688 8.53125C17.4688 5.39013 14.9224 2.84375 11.7812 2.84375C8.64013 2.84375 6.09375 5.39013 6.09375 8.53125C6.09375 11.6724 8.64013 14.2188 11.7812 14.2188Z" fill="#FFB74D"/>
<path d="M12.7969 14.1294C12.4615 14.188 12.1217 14.2179 11.7812 14.2188C10.2728 14.2188 8.82619 13.6195 7.75958 12.5529C6.69297 11.4863 6.09375 10.0397 6.09375 8.53125C6.09375 7.02283 6.69297 5.57619 7.75958 4.50958C8.82619 3.44297 10.2728 2.84375 11.7812 2.84375C12.1217 2.84456 12.4615 2.87446 12.7969 2.93312C11.4859 3.17153 10.3002 3.86248 9.44639 4.88551C8.59262 5.90854 8.12497 7.19876 8.12497 8.53125C8.12497 9.86374 8.59262 11.154 9.44639 12.177C10.3002 13.2 11.4859 13.891 12.7969 14.1294Z" fill="#FFA726"/>
<path d="M12.1875 8.125H11.375C11.1595 8.125 10.9528 8.0394 10.8005 7.88702C10.6481 7.73465 10.5625 7.52799 10.5625 7.3125C10.5625 7.09701 10.6481 6.89035 10.8005 6.73798C10.9528 6.5856 11.1595 6.5 11.375 6.5H13.4062C13.514 6.5 13.6173 6.4572 13.6935 6.38101C13.7697 6.30483 13.8125 6.20149 13.8125 6.09375C13.8125 5.98601 13.7697 5.88267 13.6935 5.80649C13.6173 5.7303 13.514 5.6875 13.4062 5.6875H12.1875V4.875C12.1875 4.76726 12.1447 4.66392 12.0685 4.58774C11.9923 4.51155 11.889 4.46875 11.7812 4.46875C11.6735 4.46875 11.5702 4.51155 11.494 4.58774C11.4178 4.66392 11.375 4.76726 11.375 4.875V5.6875C10.944 5.6875 10.5307 5.8587 10.226 6.16345C9.92121 6.4682 9.75 6.88152 9.75 7.3125C9.75 7.74348 9.92121 8.1568 10.226 8.46155C10.5307 8.76629 10.944 8.9375 11.375 8.9375H12.1875C12.403 8.9375 12.6097 9.0231 12.762 9.17548C12.9144 9.32785 13 9.53451 13 9.75C13 9.96549 12.9144 10.1722 12.762 10.3245C12.6097 10.4769 12.403 10.5625 12.1875 10.5625H10.1562C10.0485 10.5625 9.94517 10.6053 9.86899 10.6815C9.7928 10.7577 9.75 10.861 9.75 10.9688C9.75 11.0765 9.7928 11.1798 9.86899 11.256C9.94517 11.3322 10.0485 11.375 10.1562 11.375H12.1875C12.6185 11.375 13.0318 11.2038 13.3365 10.899C13.6413 10.5943 13.8125 10.181 13.8125 9.75C13.8125 9.31902 13.6413 8.9057 13.3365 8.60095C13.0318 8.29621 12.6185 8.125 12.1875 8.125Z" fill="#EEEEEE"/>
<path d="M23.9688 11.7812V23.1562C23.9688 23.5872 23.7975 24.0006 23.4928 24.3053C23.1881 24.61 22.7747 24.7812 22.3438 24.7812H3.65625C3.00978 24.7812 2.3898 24.5244 1.93268 24.0673C1.47556 23.6102 1.21875 22.9902 1.21875 22.3438V7.71875C1.21927 8.36506 1.47624 8.98474 1.93325 9.44175C2.39026 9.89876 3.00994 10.1557 3.65625 10.1562H22.3438C22.7747 10.1562 23.1881 10.3275 23.4928 10.6322C23.7975 10.9369 23.9688 11.3503 23.9688 11.7812Z" fill="#7008E7"/>
<path d="M23.9687 11.7812V23.1562C23.9688 23.3697 23.9268 23.581 23.8452 23.7782C23.7635 23.9754 23.6438 24.1545 23.4929 24.3054C23.342 24.4563 23.1629 24.576 22.9657 24.6577C22.7685 24.7393 22.5572 24.7813 22.3437 24.7812H3.65624C3.03433 24.7805 2.43625 24.5419 1.98457 24.1144C1.53289 23.6869 1.26181 23.1028 1.22687 22.4819C1.44908 22.8146 1.75001 23.0873 2.10294 23.2759C2.45587 23.4644 2.84988 23.5628 3.24999 23.5625H20.3125C20.5259 23.5626 20.7372 23.5206 20.9344 23.4389C21.1316 23.3573 21.3108 23.2376 21.4617 23.0867C21.6126 22.9358 21.7323 22.7566 21.8139 22.5594C21.8956 22.3622 21.9376 22.1509 21.9375 21.9375V11.375C21.9376 11.1442 21.8884 10.9161 21.7931 10.7058C21.6978 10.4956 21.5587 10.3083 21.385 10.1563H22.3437C22.5572 10.1562 22.7685 10.1982 22.9657 10.2798C23.1629 10.3615 23.342 10.4812 23.4929 10.6321C23.6438 10.783 23.7635 10.9621 23.8452 11.1593C23.9268 11.3565 23.9688 11.5678 23.9687 11.7812Z" fill="#290661"/>
<path d="M19.5 14.625H23.9688C24.1842 14.625 24.3909 14.7106 24.5433 14.863C24.6956 15.0153 24.7812 15.222 24.7812 15.4375V19.5C24.7812 19.7155 24.6956 19.9222 24.5433 20.0745C24.3909 20.2269 24.1842 20.3125 23.9688 20.3125H19.5C18.7458 20.3125 18.0225 20.0129 17.4892 19.4796C16.9559 18.9463 16.6562 18.223 16.6562 17.4688C16.6562 16.7145 16.9559 15.9912 17.4892 15.4579C18.0225 14.9246 18.7458 14.625 19.5 14.625Z" fill="#C29FFA"/>
<path d="M24.7812 15.4375V19.5C24.7806 19.7153 24.6948 19.9216 24.5426 20.0738C24.3903 20.2261 24.184 20.3119 23.9687 20.3125H19.5C18.7923 20.3133 18.1099 20.0496 17.5867 19.573C17.0636 19.0965 16.7375 18.4416 16.6725 17.7369C16.787 17.9279 16.9248 18.1039 17.0828 18.2609C17.3463 18.5257 17.6597 18.7357 18.0049 18.8786C18.3501 19.0216 18.7201 19.0947 19.0937 19.0938H21.125C21.3384 19.0938 21.5497 19.0518 21.7469 18.9702C21.9441 18.8885 22.1233 18.7688 22.2742 18.6179C22.4251 18.467 22.5448 18.2879 22.6264 18.0907C22.7081 17.8935 22.75 17.6822 22.75 17.4688V14.625H23.9687C24.184 14.6256 24.3903 14.7114 24.5426 14.8637C24.6948 15.0159 24.7806 15.2222 24.7812 15.4375Z" fill="#8441F5"/>
<path d="M19.5 18.2812C19.9487 18.2812 20.3125 17.9175 20.3125 17.4688C20.3125 17.02 19.9487 16.6562 19.5 16.6562C19.0513 16.6562 18.6875 17.02 18.6875 17.4688C18.6875 17.9175 19.0513 18.2812 19.5 18.2812Z" fill="#EEEEEE"/>
<path d="M20.3125 17.4688C20.3127 17.6114 20.2753 17.7517 20.204 17.8753C20.1327 17.9989 20.0301 18.1015 19.9065 18.1728C19.7829 18.244 19.6426 18.2815 19.4999 18.2813C19.3573 18.281 19.2171 18.2432 19.0938 18.1716C19.2172 18.1004 19.3198 17.998 19.3911 17.8746C19.4625 17.7513 19.5 17.6113 19.5 17.4688C19.5 17.3262 19.4625 17.1862 19.3911 17.0629C19.3198 16.9395 19.2172 16.8371 19.0938 16.7659C19.2171 16.6943 19.3573 16.6565 19.4999 16.6563C19.6426 16.656 19.7829 16.6935 19.9065 16.7647C20.0301 16.836 20.1327 16.9386 20.204 17.0622C20.2753 17.1858 20.3127 17.3261 20.3125 17.4688Z" fill="#E0E0E0"/>
</svg>
